#!OML:ASF E:/inclinewalkrobotboard/Project1/Captureday1/Session1/subject1.ASF
:FULLY-SPECIFIED
:DEGREES
226
root 0 0 0 76.3160678322385 -27.409119467598124 -45.45888969453891
lowerback -11.18797756569527 7.863133584528905 9.568361100541313
upperback -20.516227498867398 10.07430811826031 2.9589781181877246
thorax -15.45555445092332 3.970012158805173 -1.7123618071682998
lowerneck -7.544794056700219 9.772187205046551 5.4112627840379846
upperneck 11.709364730537262 11.680824573283592 7.288235101456771
head 4.804691176416333 6.267482156128004 2.0771003712852787
rclavicle 6.073665245391526E-15 -3.4225025752662605E-15
rhumerus 108.75569789181093 -24.947311993849915 -115.1557491801305
rradius 0.8215102026217629
rwrist 69.63323759227842
rhand 13.713836460398689 -12.593020846847166
rfingers 7.125020000000017
rthumb 38.71083799064872 -38.48822321373413
lclavicle -6.741421104938388E-16 1.5002147288565557E-15
lhumerus -0.12653839274970302 24.96338597800183 1.7096028337065547
lradius 9.289305247844545
lwrist -41.460352181164744
lhand 12.101112861399006 36.73828043844618
lfingers 7.125020000000047
lthumb 37.20835197252421 63.82984889274139
rfemur 183.0960192359923 -219.74310546583786 -192.0685321893451
rtibia 67.3686131038122
rfoot -22.858262011168843 -9.917841804436364
rtoes 49.87333616861997
lfemur -109.45529181929284 35.765741189408196 -24.14019898318376
ltibia 68.08900856730803
lfoot -38.32207579069613 35.57695390411637
ltoes 38.932876011752384
227
root 0 0 0 76.31526104156677 -27.41358610296364 -45.45758464998062
lowerback -11.187951603296174 7.863148345921015 9.567571623090416
upperback -20.5153899603369 10.074319907334552 2.9582785697982157
thorax -15.454704686943671 3.970064706756566 -1.7127177580109798
lowerneck -7.5460315405772125 9.77197978430718 5.411450457696677
upperneck 11.710386839696316 11.680360791723986 7.288027095727782
head 4.805256905607138 6.267311176693376 2.077053405200414
rclavicle 6.071845315159205E-15 -3.4189525039993035E-15
rhumerus 108.73306248129312 -24.94152189352857 -115.1445770015957
rradius 0.8142197768525996
rwrist 69.64067692808354
rhand 13.725966006203208 -12.599843746048178
rfingers 7.125020000000017
rthumb 38.722408622225274 -38.49298660567948
lclavicle -6.818571377018194E-16 1.503494257366115E-15
lhumerus -0.12156223063849048 24.997640006934212 1.7348643109226316
lradius 9.27186416337096
lwrist -41.468795656557305
lhand 12.087909838409011 36.728635274987276
lfingers 7.125020000000047
lthumb 37.1958555925486 63.82314823091014
rfemur 183.09006075880828 -219.73976613994307 -192.0655362858322
rtibia 67.36957838588077
rfoot -22.856572151572212 -9.926110782688086
rtoes 49.87885245140069
lfemur -109.46291272141161 35.76444604489927 -24.1495436660657
ltibia 68.12294054232966
lfoot -38.31959334550473 35.57413485441547
ltoes 38.922200520819
228
root 0 0 0 76.31465051507425 -27.4174155839855 -45.45655743541255
lowerback -11.188018230110867 7.863151844777988 9.566974487069311
upperback -20.514687970831393 10.074323762031291 2.95771256933525
thorax -15.453934025073858 3.970101052437821 -1.713032886539283
lowerneck -7.547038922812039 9.771769807578803 5.411614921045704
upperneck 11.711483697147388 11.679903614020198 7.287832798856794
head 4.805820120513874 6.267138716053927 2.077004529080531
rclavicle 6.0721508961608795E-15 -3.4143593444815676E-15
rhumerus 108.70800724677683 -24.934679786896123 -115.12978474614192
rradius 0.8099657108657787
rwrist 69.64275625875833
rhand 13.737743546778553 -12.605813953941142
rfingers 7.125020000000017
rthumb 38.73360158877833 -38.496836150367
lclavicle -6.83823821256135E-16 1.508775255263169E-15
lhumerus -0.13216248433358757 25.021755072350235 1.757272736923511
lradius 9.259031784477841
lwrist -41.47624848357184
lhand 12.077810866275776 36.721210181979814
lfingers 7.125020000000047
lthumb 37.18629783476035 63.81793397995355
rfemur 183.08522344940843 -219.74008229134085 -192.0648276703171
rtibia 67.36819168693442
rfoot -22.868830829087717 -9.92593965014684
rtoes 49.88159906762712
lfemur -109.47340753228426 35.764406394982 -24.158981622359732
ltibia 68.15389773736766
lfoot -38.31238328019213 35.57267578060957
ltoes 38.91309940155646
229
root 0 0 0 76.31421074408902 -27.420561456568578 -45.455766179110164
lowerback -11.188150949780361 7.863149522755295 9.566534363200908
upperback -20.51413731064722 10.074323347997375 2.957278487780681
thorax -15.453280858122035 3.970126121270372 -1.71328590200251
lowerneck -7.547812153835158 9.771585886050795 5.4117529074123105
upperneck 11.712500413389145 11.67950424089478 7.287674058173922
head 4.806319362016128 6.266987218814918 2.0769624588361038
rclavicle 6.073813326821061E-15 -3.409978664105888E-15
rhumerus 108.6834809773313 -24.927311889818935 -115.11519673937916
rradius 0.8074027856192849
rwrist 69.64200561737974
rhand 13.748551791733487 -12.61095034760399
rfingers 7.125020000000017
rthumb 38.74385101340898 -38.49995477137473
lclavicle -6.827566818517394E-16 1.5143357234206806E-15
lhumerus -0.1486734481831231 25.037730582064544 1.7752841747607562
lradius 9.250023060566697
lwrist -41.48214492904543
lhand 12.070883663435252 36.71593604714316
lfingers 7.125020000000047
lthumb 37.179747833372716 63.81418030678191
rfemur 183.08095221299146 -219.7425130030565 -192.0657247291982
rtibia 67.36473287288848
rfoot -22.889871185470593 -9.920538650118074
rtoes 49.88354755916863
lfemur -109.48495781219725 35.7650723557663 -24.167585718719913
ltibia 68.18138781270477
lfoot -38.302936570254964 35.57189440832243
ltoes 38.9054145145385
